<?xml version="1.0" encoding="utf-8"?>
<!-- Generator: Adobe Illustrator 25.2.3, SVG Export Plug-In . SVG Version: 6.00 Build 0)  -->
<svg version="1.1"
	 id="svg8" xmlns:cc="http://creativecommons.org/ns#" xmlns:dc="http://purl.org/dc/elements/1.1/" xmlns:rdf="http://www.w3.org/1999/02/22-rdf-syntax-ns#" xmlns:svg="http://www.w3.org/2000/svg"
	 xmlns="http://www.w3.org/2000/svg" xmlns:xlink="http://www.w3.org/1999/xlink" x="0px" y="0px" viewBox="0 0 361 730"
	 style="enable-background:new 0 0 361 730;" xml:space="preserve">
<style type="text/css">
	.st0{fill:none;}
	.st1{fill:#3F4B5B;}
	.st2{fill:url(#rect2415-4-9-9_1_);}
	.st3{fill:url(#rect2415-4-9_1_);}
	.st4{fill:url(#rect2415-4-9-6_1_);}
	.st5{fill:url(#rect2415-4_1_);}
	.st6{fill:#C8E1F8;stroke:#3F4B5B;stroke-linecap:round;stroke-linejoin:round;stroke-miterlimit:15.1181;}
	.st7{clip-path:url(#SVGID_2_);}
	.st8{fill:#A0B8CE;}
	.st9{fill:#819ABB;}
	.st10{stroke:#434343;stroke-width:0.5;}
	.st11{fill:#FFFFFF;}
	.st12{stroke:#1A1A1A;stroke-width:0.5;stroke-linecap:round;stroke-linejoin:round;stroke-miterlimit:15.1181;}
	.st13{fill:url(#rect5261_2_);}
	.st14{fill:none;stroke:#292929;stroke-width:0.1538;stroke-linecap:round;stroke-miterlimit:15.1181;}
	.st15{clip-path:url(#SVGID_4_);}
	.st16{fill:#161616;}
	.st17{fill:#0A0D13;}
	.st18{fill:#091427;}
	.st19{opacity:0.5561;fill-rule:evenodd;clip-rule:evenodd;fill:#235A91;enable-background:new    ;}
	.st20{fill:#F3F3F3;}
	.st21{display:none;fill:#AA2626;stroke:#F3F3F3;stroke-miterlimit:10;}
	.st22{fill:#222223;}
	.st23{font-family:'ArialMT';}
	.st24{font-size:15.0541px;}
	.st25{font-size:15.4427px;}
</style>
<pattern  y="730" width="361" height="730" patternUnits="userSpaceOnUse" id="rect5261_1_" viewBox="0 -730 361 730" style="overflow:visible;">
	<g>
		<rect y="-730" class="st0" width="361" height="730"/>
		<g>
			<rect y="-730" class="st0" width="361" height="730"/>
			<g>
				<rect y="-730" class="st0" width="361" height="730"/>
				<g>
					<rect y="-730" class="st0" width="361" height="730"/>
				</g>
			</g>
		</g>
	</g>
</pattern>
<g id="layer2">
	<g id="g1506">
		<path id="rect2415-6-8" class="st1" d="M351.6,217.5h8.5c0.5,0,0.8,0.4,0.8,0.8v84.3c0,0.5-0.4,0.8-0.8,0.8h-8.5
			c-0.5,0-0.8-0.4-0.8-0.8v-84.3C350.8,217.9,351.1,217.5,351.6,217.5z"/>
		<path id="rect2415-6" class="st1" d="M1,200h8.5c0.5,0,0.8,0.4,0.8,0.8v52.1c0,0.5-0.4,0.8-0.8,0.8H1c-0.5,0-0.8-0.4-0.8-0.8
			v-52.1C0.2,200.4,0.5,200,1,200L1,200z"/>
		<path id="rect2415-6-0" class="st1" d="M1,270h8.5c0.5,0,0.8,0.4,0.8,0.8v52.1c0,0.5-0.4,0.8-0.8,0.8H1c-0.5,0-0.8-0.4-0.8-0.8
			v-52.1C0.2,270.4,0.5,270,1,270z"/>
		<path id="rect2415" class="st1" d="M1,146.8h8.5c0.4,0,0.8,0.4,0.8,0.8v26.3c0,0.4-0.4,0.8-0.8,0.8H1c-0.4,0-0.8-0.4-0.8-0.8
			v-26.3C0.2,147.2,0.5,146.8,1,146.8z"/>
	</g>
	
		<linearGradient id="rect2415-4-9-9_1_" gradientUnits="userSpaceOnUse" x1="192.1307" y1="-234.6691" x2="192.1307" y2="-212.4175" gradientTransform="matrix(3.7795 0 0 3.7795 -370.3079 1105.4318)">
		<stop  offset="0" style="stop-color:#81AACE"/>
		<stop  offset="0.1" style="stop-color:#B9D2E8"/>
		<stop  offset="0.9" style="stop-color:#B9D2E8"/>
		<stop  offset="1" style="stop-color:#81AACE"/>
	</linearGradient>
	<path id="rect2415-4-9-9" class="st2" d="M351.6,218.5h8.5c0.5,0,0.8,0.4,0.8,0.8v82.5c0,0.5-0.4,0.8-0.8,0.8h-8.5
		c-0.5,0-0.8-0.4-0.8-0.8v-82.5C350.8,218.9,351.1,218.5,351.6,218.5z"/>
	
		<linearGradient id="rect2415-4-9_1_" gradientUnits="userSpaceOnUse" x1="192.1326" y1="-234.6477" x2="192.1326" y2="-220.9157" gradientTransform="matrix(3.7795 0 0 3.7795 -720.8227 1087.9508)">
		<stop  offset="0" style="stop-color:#81AACE"/>
		<stop  offset="0.1" style="stop-color:#B9D2E8"/>
		<stop  offset="0.9" style="stop-color:#B9D2E8"/>
		<stop  offset="1" style="stop-color:#81AACE"/>
	</linearGradient>
	<path id="rect2415-4-9" class="st3" d="M1.1,201.1h8.5c0.5,0,0.8,0.4,0.8,0.8v50.3c0,0.5-0.4,0.8-0.8,0.8H1.1
		c-0.5,0-0.8-0.4-0.8-0.8v-50.3C0.2,201.4,0.6,201.1,1.1,201.1L1.1,201.1z"/>
	
		<linearGradient id="rect2415-4-9-6_1_" gradientUnits="userSpaceOnUse" x1="192.1319" y1="-234.6574" x2="192.1319" y2="-220.9254" gradientTransform="matrix(3.7795 0 0 3.7795 -720.9127 1157.9877)">
		<stop  offset="0" style="stop-color:#81AACE"/>
		<stop  offset="0.1" style="stop-color:#B9D2E8"/>
		<stop  offset="0.9" style="stop-color:#B9D2E8"/>
		<stop  offset="1" style="stop-color:#81AACE"/>
	</linearGradient>
	<path id="rect2415-4-9-6" class="st4" d="M1,271.1h8.5c0.5,0,0.8,0.4,0.8,0.8v50.3c0,0.5-0.4,0.8-0.8,0.8H1c-0.5,0-0.8-0.4-0.8-0.8
		v-50.3C0.2,271.5,0.5,271.1,1,271.1L1,271.1z"/>
	
		<linearGradient id="rect2415-4_1_" gradientUnits="userSpaceOnUse" x1="192.1319" y1="-234.6556" x2="192.1319" y2="-227.7499" gradientTransform="matrix(3.7795 0 0 3.7795 -720.9127 1034.7806)">
		<stop  offset="0" style="stop-color:#81AACE"/>
		<stop  offset="0.1" style="stop-color:#B9D2E8"/>
		<stop  offset="0.9" style="stop-color:#B9D2E8"/>
		<stop  offset="1" style="stop-color:#81AACE"/>
	</linearGradient>
	<path id="rect2415-4" class="st5" d="M1,147.9h8.5c0.4,0,0.8,0.4,0.8,0.8v24.5c0,0.4-0.4,0.8-0.8,0.8H1c-0.4,0-0.8-0.4-0.8-0.8
		v-24.5C0.2,148.3,0.5,147.9,1,147.9z"/>
	<path id="rect2163" class="st6" d="M58.4,0.8h244.3c30.7,0,55.6,24.9,55.6,55.6v617c0,30.7-24.9,55.6-55.6,55.6H58.4
		c-30.7,0-55.6-24.9-55.6-55.6v-617C2.7,25.7,27.6,0.8,58.4,0.8z"/>
	<g>
		<g>
			<g>
				<g>
					<defs>
						<path id="SVGID_1_" d="M58.4,0.8h244.3c30.7,0,55.6,24.9,55.6,55.6v617c0,30.7-24.9,55.6-55.6,55.6H58.4
							c-30.7,0-55.6-24.9-55.6-55.6v-617C2.7,25.7,27.6,0.8,58.4,0.8z"/>
					</defs>
					<clipPath id="SVGID_2_">
						<use xlink:href="#SVGID_1_"  style="overflow:visible;"/>
					</clipPath>
					<g id="rect2163-1" class="st7">
						<path class="st8" d="M58.4,2.8C28.6,2.8,4.7,26.7,4.7,56.5v617c0,29.8,23.9,53.7,53.7,53.7h244.3c29.8,0,53.7-23.9,53.7-53.7
							v-617c0-29.8-23.9-53.7-53.7-53.7C302.7,2.8,58.4,2.8,58.4,2.8z"/>
					</g>
				</g>
			</g>
		</g>
	</g>
	<path id="rect2172" class="st9" d="M281.8,0.3v12h5v-12C286.8,0.3,281.8,0.3,281.8,0.3z M2.2,73v5h356.6v-5H2.2z M2.2,653.3v5
		h356.6v-5H2.2z M74.3,719.4v10.3h5v-10.3H74.3z"/>
	<rect id="rect1093" x="149.9" y="5.2" width="63.2" height="5"/>
	<path id="rect3540" class="st10" d="M59.3,5.4c-29,0-52.4,23.4-52.4,52.5v614.2c0,29.1,23.4,52.5,52.5,52.5h242.5
		c29.1,0,52.5-23.4,52.5-52.5V57.9c0-29.1-23.4-52.5-52.5-52.5h-88.7c-1.1,0-2.1,0.8-2.3,2v0.1l0,0h-58.6c-0.1-1.2-1.1-2.1-2.3-2.1
		C150,5.4,59.3,5.4,59.3,5.4z"/>
	<path class="st11" d="M341.2,55.1V675c0,21-17.1,38.1-38.1,38.1H57.9c-21,0-38.1-17.1-38.1-38.1V55.1c0-21,17.1-38.1,38.1-38.1
		h48.8c4.5,0,6.8,0.4,6.8,7.5s4.3,19,20,19h94c15.6,0,20-12,20-19s2.3-7.5,6.8-7.5h48.8C324.1,17,341.2,34.1,341.2,55.1z"/>
	<path id="rect1030" class="st12" d="M154.5,5.4h54c1.3,0,2.3,1,2.3,2.3v2.5c0,1.3-1,2.3-2.3,2.3h-54c-1.3,0-2.3-1-2.3-2.3V7.7
		C152.2,6.5,153.2,5.4,154.5,5.4z"/>
	<g id="g2819" transform="translate(4.9056839,1.0604965)">
		<pattern  id="rect5261_2_" xlink:href="#rect5261_1_" patternTransform="matrix(0.769 0 0 0.769 -7841.668 27075.1348)">
		</pattern>
		<path id="rect5261" class="st13" d="M151,5.8h51.3c1.2,0,2.1,0.9,2.1,2.1l0,0c0,1.2-0.9,2.1-2.1,2.1H151c-1.2,0-2.1-0.9-2.1-2.1
			l0,0C148.9,6.8,149.8,5.8,151,5.8z"/>
		<path id="rect5261-0" class="st14" d="M151,5.8c-1.2,0-2.1,0.9-2.1,2.1s0.9,2.1,2.1,2.1h51.3c1.2,0,2.1-0.9,2.1-2.1
			s-0.9-2.1-2.1-2.1H151z"/>
		<g>
			<g>
				<g>
					<g>
						<defs>
							<path id="SVGID_3_" d="M192.4,1.5c-1.2,0-2.2,1-2.2,2.2s1,2.2,2.2,2.2h51.3c1.2,0,2.2-1,2.2-2.2s-1-2.2-2.2-2.2
								C243.7,1.5,192.4,1.5,192.4,1.5z M192.4,1.7h51.3c1.1,0,2,0.9,2,2s-0.9,2-2,2h-51.3c-1.1,0-2-0.9-2-2
								C190.3,2.6,191.2,1.7,192.4,1.7z"/>
						</defs>
						<clipPath id="SVGID_4_">
							<use xlink:href="#SVGID_3_"  style="overflow:visible;"/>
						</clipPath>
						<g id="g2576" transform="translate(13.82448,-1.4319817)" class="st15">
							<path id="path999-2_1_" class="st11" d="M190.5,9.3c0,0.4-0.2,0.7-0.5,0.7s-0.5-0.3-0.5-0.7s0.2-0.7,0.5-0.7
								C190.3,8.7,190.5,9,190.5,9.3z"/>
							<path id="path999-2-2_1_" class="st11" d="M135,9.3c0,0.4,0.2,0.7,0.5,0.7s0.5-0.3,0.5-0.7s-0.2-0.7-0.5-0.7S135,9,135,9.3z"
								/>
						</g>
					</g>
				</g>
			</g>
		</g>
	</g>
	<g id="g2170" transform="matrix(0.86611782,0,0,0.86611782,75.937463,1.8588713)">
		<circle id="path5263" class="st16" cx="67.7" cy="28.6" r="6.6"/>
		<circle id="path5265" class="st17" cx="67.7" cy="28.6" r="4.1"/>
		<circle id="path5267" class="st18" cx="67.7" cy="28.6" r="3.1"/>
		<g id="path5271">
			<path class="st19" d="M65.6,26.5c-0.4,0-0.9,0.6-0.9,1.7c0,1.1,0.4,1.7,0.7,1.7C65.6,29.9,66.8,28.3,65.6,26.5L65.6,26.5z"/>
		</g>
		<g id="path5273">
			<path class="st19" d="M68.2,26.1c-0.6,0.2-0.7,1.1-0.7,1.7c0,0.5,0.8,1.9,1.7,1.6c0.9-0.3,1.1-1.5,0.7-2.3
				C69.6,26.3,68.9,25.8,68.2,26.1z"/>
		</g>
	</g>
</g>
<path class="st20" d="M341.2,55.1v41.7H19.8V55.1c0-21,17.1-38.1,38.1-38.1h48.8c4.5,0,6.8,0.4,6.8,7.5s4.3,19,20,19h94
	c15.6,0,20-12,20-19s2.3-7.5,6.8-7.5h48.8C324.1,17,341.2,34.1,341.2,55.1z"/>
<rect x="-6.5" y="576.1" class="st21" width="374" height="74.2"/>
<polygon class="st10" points="252.4,37.4 267.6,26.5 267.6,37.4 "/>
<path class="st10" d="M319.4,35.7v-1.2h2.4v-4.4h-2.4v-0.8c0-0.9-0.7-1.7-1.6-1.7l-13.9-0.1c-0.9,0-1.7,0.7-1.7,1.6v6.3
	c0,0.9,0.7,1.7,1.6,1.7l13.9,0.1C318.6,37.4,319.4,36.7,319.4,35.7z"/>
<text transform="matrix(1 0 0 1 274.402 37.3877)" class="st22 st23 st24">100 </text>
<text transform="matrix(1 0 0 1 54.1249 37.3877)" class="st23 st25">9:40</text>
</svg>
