<?xml version="1.0" encoding="utf-8"?>
<!-- Generator: Adobe Illustrator 25.2.3, SVG Export Plug-In . SVG Version: 6.00 Build 0)  -->
<svg version="1.1" id="Calque_1" xmlns="http://www.w3.org/2000/svg" xmlns:xlink="http://www.w3.org/1999/xlink" x="0px" y="0px"
	 viewBox="0 0 361 730" style="enable-background:new 0 0 361 730;" xml:space="preserve">
<style type="text/css">
	.st0{fill:url(#SVGID_1_);}
	.st1{fill:url(#SVGID_2_);}
	.st2{fill:url(#SVGID_3_);}
	.st3{fill:url(#SVGID_4_);}
	.st4{fill:#141413;}
	.st5{fill:#FFFFFF;}
	.st6{fill:#091427;}
	.st7{fill:#161616;}
	.st8{fill:#0A0D13;}
	.st9{opacity:0.5561;fill-rule:evenodd;clip-rule:evenodd;fill:#235A91;enable-background:new    ;}
	.st10{fill:#969696;}
	.st11{fill:#797979;}
	.st12{fill:none;stroke:#797979;stroke-width:2;stroke-miterlimit:10;}
	.st13{fill:none;stroke:#535353;stroke-width:2;stroke-miterlimit:10;}
	.st14{fill:#535353;}
	.st15{fill:none;}
	.st16{fill:#D84545;}
	.st17{fill:#D84545;stroke:#6B3434;stroke-miterlimit:10;}
	.st18{fill:none;stroke:#797979;stroke-miterlimit:10;}
	.st19{fill:none;stroke:#535353;stroke-width:0.5;stroke-miterlimit:10;}
	.st20{fill:#7E7D7D;}
	.st21{font-family:'MuktaMahee-Bold';}
	.st22{font-size:14.5463px;}
	.st23{font-size:14.2574px;}
	.st24{fill:#222222;}
	.st25{fill:none;stroke:#222222;stroke-miterlimit:10;}
	.st26{fill:none;stroke:#222222;stroke-width:3;stroke-miterlimit:10;}
</style>
<g>
	
		<linearGradient id="SVGID_1_" gradientUnits="userSpaceOnUse" x1="357.8959" y1="-782.2015" x2="352.0031" y2="-782.2015" gradientTransform="matrix(1 0 0 1 0 1000)">
		<stop  offset="0" style="stop-color:#FFFFFF"/>
		<stop  offset="7.380247e-03" style="stop-color:#F6F6F6"/>
		<stop  offset="4.767627e-02" style="stop-color:#C8C8C8"/>
		<stop  offset="9.308982e-02" style="stop-color:#9D9D9D"/>
		<stop  offset="0.1419" style="stop-color:#777777"/>
		<stop  offset="0.195" style="stop-color:#575757"/>
		<stop  offset="0.2537" style="stop-color:#3B3B3B"/>
		<stop  offset="0.32" style="stop-color:#252525"/>
		<stop  offset="0.3974" style="stop-color:#141414"/>
		<stop  offset="0.4931" style="stop-color:#090909"/>
		<stop  offset="0.6274" style="stop-color:#020202"/>
		<stop  offset="1" style="stop-color:#000000"/>
	</linearGradient>
	<path class="st0" d="M355,272.9h-0.1c-1.6,0-2.9-1.3-2.9-2.9V165.6c0-1.6,1.3-2.9,2.9-2.9h0.1c1.6,0,2.9,1.3,2.9,2.9V270
		C357.9,271.6,356.6,272.9,355,272.9z"/>
	
		<linearGradient id="SVGID_2_" gradientUnits="userSpaceOnUse" x1="357.8959" y1="-664.6217" x2="352.0031" y2="-664.6217" gradientTransform="matrix(1 0 0 1 0 1000)">
		<stop  offset="0" style="stop-color:#FFFFFF"/>
		<stop  offset="7.380247e-03" style="stop-color:#F6F6F6"/>
		<stop  offset="4.767627e-02" style="stop-color:#C8C8C8"/>
		<stop  offset="9.308982e-02" style="stop-color:#9D9D9D"/>
		<stop  offset="0.1419" style="stop-color:#777777"/>
		<stop  offset="0.195" style="stop-color:#575757"/>
		<stop  offset="0.2537" style="stop-color:#3B3B3B"/>
		<stop  offset="0.32" style="stop-color:#252525"/>
		<stop  offset="0.3974" style="stop-color:#141414"/>
		<stop  offset="0.4931" style="stop-color:#090909"/>
		<stop  offset="0.6274" style="stop-color:#020202"/>
		<stop  offset="1" style="stop-color:#000000"/>
	</linearGradient>
	<path class="st1" d="M355,353h-0.1c-1.6,0-2.9-1.3-2.9-2.9v-29.5c0-1.6,1.3-2.9,2.9-2.9h0.1c1.6,0,2.9,1.3,2.9,2.9v29.5
		C357.9,351.7,356.6,353,355,353z"/>
	
		<linearGradient id="SVGID_3_" gradientUnits="userSpaceOnUse" x1="3.9698" y1="-635.3892" x2="354.9932" y2="-635.3892" gradientTransform="matrix(1 0 0 1 0 1000)">
		<stop  offset="0" style="stop-color:#21211F"/>
		<stop  offset="4.868319e-02" style="stop-color:#FFFFFF"/>
		<stop  offset="0.1531" style="stop-color:#C5C5C5"/>
		<stop  offset="0.239" style="stop-color:#A6A6A6"/>
		<stop  offset="0.3319" style="stop-color:#8C8C8C"/>
		<stop  offset="0.4345" style="stop-color:#787878"/>
		<stop  offset="0.5521" style="stop-color:#6B6B6B"/>
		<stop  offset="0.6976" style="stop-color:#626262"/>
		<stop  offset="0.9552" style="stop-color:#606060"/>
		<stop  offset="0.9582" style="stop-color:#828282"/>
		<stop  offset="0.9621" style="stop-color:#A8A8A8"/>
		<stop  offset="0.9662" style="stop-color:#C8C8C8"/>
		<stop  offset="0.9705" style="stop-color:#E0E0E0"/>
		<stop  offset="0.9749" style="stop-color:#F1F1F1"/>
		<stop  offset="0.9797" style="stop-color:#FCFCFC"/>
		<stop  offset="0.9855" style="stop-color:#FFFFFF"/>
		<stop  offset="0.986" style="stop-color:#EAEAEA"/>
		<stop  offset="0.9874" style="stop-color:#BBBBBB"/>
		<stop  offset="0.9887" style="stop-color:#929291"/>
		<stop  offset="0.9902" style="stop-color:#6F6F6E"/>
		<stop  offset="0.9917" style="stop-color:#535351"/>
		<stop  offset="0.9934" style="stop-color:#3D3D3B"/>
		<stop  offset="0.9951" style="stop-color:#2D2D2B"/>
		<stop  offset="0.9972" style="stop-color:#242422"/>
		<stop  offset="1" style="stop-color:#21211F"/>
	</linearGradient>
	<path class="st2" d="M316.8,727.7H42.2C21.1,727.7,4,710.6,4,689.5V39.7C4,18.6,21.1,1.5,42.2,1.5h274.6
		c21.1,0,38.2,17.1,38.2,38.2v649.8C355,710.6,337.9,727.7,316.8,727.7z"/>
	
		<linearGradient id="SVGID_4_" gradientUnits="userSpaceOnUse" x1="347.7983" y1="-649.3808" x2="341.9054" y2="-649.3808" gradientTransform="matrix(1 0 0 1 0 1000)">
		<stop  offset="0" style="stop-color:#FFFFFF"/>
		<stop  offset="4.383439e-02" style="stop-color:#D6D6D6"/>
		<stop  offset="9.931976e-02" style="stop-color:#AAAAAA"/>
		<stop  offset="0.1605" style="stop-color:#818181"/>
		<stop  offset="0.2259" style="stop-color:#5E5E5E"/>
		<stop  offset="0.2969" style="stop-color:#414141"/>
		<stop  offset="0.3752" style="stop-color:#292929"/>
		<stop  offset="0.4639" style="stop-color:#171717"/>
		<stop  offset="0.569" style="stop-color:#0A0A0A"/>
		<stop  offset="0.7066" style="stop-color:#020202"/>
		<stop  offset="1" style="stop-color:#000000"/>
	</linearGradient>
	<rect x="341.9" y="285.3" class="st3" width="5.9" height="130.7"/>
	<path class="st4" d="M310.8,726H45.1C24,726,6.9,708.9,6.9,687.8V41.4C6.9,20.3,24,3.2,45.1,3.2h265.6c21.1,0,38.2,17.1,38.2,38.2
		v646.4C349,708.9,331.9,726,310.8,726z"/>
	<path class="st5" d="M308.7,717.2H46.8c-21,0-38-16.9-38-37.7V46.4c0-20.8,17-37.7,38-37.7h261.8c21,0,38,16.9,38,37.7v633.1
		C346.7,700.3,329.7,717.2,308.7,717.2z"/>
</g>
<circle class="st6" cx="178.8" cy="26.6" r="9.4"/>
<g id="g2170" transform="matrix(0.86611782,0,0,0.86611782,75.937463,1.8588713)">
	<circle id="path5263" class="st7" cx="119.2" cy="27.6" r="6.6"/>
	<circle id="path5265" class="st8" cx="119.2" cy="27.6" r="4.1"/>
	<circle id="path5267" class="st6" cx="119.2" cy="27.6" r="3.1"/>
	<g id="path5271">
		<path class="st9" d="M117.1,25.5c-0.4,0-0.9,0.6-0.9,1.7c0,1.1,0.4,1.7,0.7,1.7C117.1,28.9,118.3,27.3,117.1,25.5L117.1,25.5z"/>
	</g>
	<g id="path5273">
		<path class="st9" d="M119.7,25.1c-0.6,0.2-0.7,1.1-0.7,1.7c0,0.5,0.8,1.9,1.7,1.6c0.9-0.3,1.1-1.5,0.7-2.3
			C121.1,25.3,120.4,24.8,119.7,25.1z"/>
	</g>
</g>
<path class="st10" d="M291.7,30.1c-1,0-1.7,0.8-1.7,1.7c0,1,0.8,1.7,1.7,1.7c1,0,1.7-0.8,1.7-1.7C293.5,30.9,292.7,30.1,291.7,30.1z
	 M291.7,25.9c-1.9,0-3.6,0.7-5,2c-0.3,0.3-0.4,0.9-0.1,1.2c0.3,0.3,0.9,0.4,1.2,0.1c1.1-1,2.5-1.5,3.9-1.5c1.4,0,2.8,0.5,3.9,1.5
	c0.2,0.1,0.3,0.2,0.5,0.2c0.2,0,0.4-0.1,0.7-0.3c0.3-0.3,0.3-0.9-0.1-1.2C295.5,26.5,293.6,25.9,291.7,25.9z M300,25
	c-2.3-2.2-5.1-3.3-8.3-3.3c-3.1,0-6,1.2-8.3,3.3c-0.3,0.3-0.3,0.9,0,1.2c0.3,0.3,0.9,0.3,1.2,0c2-1.9,4.4-2.8,7.1-2.8
	c2.7,0,5.1,1,7.1,2.8c0.2,0.1,0.4,0.2,0.5,0.2c0.2,0,0.4-0.1,0.7-0.2C300.4,25.8,300.4,25.3,300,25z"/>
<g>
	<g>
		<path class="st10" d="M311.9,24.3l0.1,7.3h-2.4l-0.1-7.3H311.9z M309.3,33.6c-0.8,0-1.5-0.7-1.5-1.7l-0.1-8c0-0.9,0.6-1.7,1.5-1.7
			h0.3c0-0.4,0.3-0.7,0.6-0.7h1.2c0.4,0,0.6,0.3,0.6,0.7h0.3c0.8,0,1.5,0.7,1.5,1.7l0.1,8c0,0.9-0.6,1.7-1.5,1.7H309.3z M309,31.9
			c0,0.2,0.2,0.3,0.3,0.3h3c0.2,0,0.3-0.2,0.3-0.3l-0.1-8c0-0.2-0.2-0.3-0.3-0.3h-3c-0.2,0-0.3,0.2-0.3,0.3L309,31.9z"/>
		<rect x="308.6" y="23.5" class="st10" width="4.3" height="9.1"/>
	</g>
</g>
<g>
	
		<rect x="285.9" y="676.3" transform="matrix(-0.7525 -0.6586 0.6586 -0.7525 51.8475 1388.3076)" class="st11" width="1.8" height="16.2"/>
	<rect x="287.5" y="685.3" transform="matrix(0.5 -0.866 0.866 0.5 -456.306 596.4354)" class="st11" width="1.8" height="16.2"/>
</g>
<g>
	<rect x="61.8" y="682" class="st11" width="2.6" height="19.1"/>
	<rect x="69.3" y="682" class="st11" width="2.6" height="19.1"/>
	<rect x="76.7" y="682" class="st11" width="2.6" height="19.1"/>
</g>
<path class="st12" d="M179.5,701.1h-10c-2.1,0-3.7-1.7-3.7-3.7v-11.7c0-2.1,1.7-3.7,3.7-3.7h10c2.1,0,3.7,1.7,3.7,3.7v11.7
	C183.2,699.4,181.5,701.1,179.5,701.1z"/>
<image style="overflow:visible;" width="1655" height="961" xlink:href="../../../../../../Desktop/Capture d’écran 2022-06-27 à 10.58.16.png"  transform="matrix(0.5956 0 0 0.5956 -354.8008 -592.4291)">
</image>
<circle class="st13" cx="31.6" cy="646.6" r="9.3"/>
<g>
	<rect x="30.9" y="641.7" class="st14" width="1.3" height="8.4"/>
	
		<rect x="30.9" y="641.7" transform="matrix(-1.836970e-16 1 -1 -1.836970e-16 677.5046 614.3406)" class="st14" width="1.3" height="8.4"/>
</g>
<path class="st15" d="M701.7,684"/>
<path class="st16" d="M910.9,392.1"/>
<path class="st17" d="M910.9,392.1"/>
<path class="st14" d="M74.3,655H60.6c-2.2,0-3.9-1.8-3.9-3.9v-9c0-2.2,1.8-3.9,3.9-3.9h13.7c2.2,0,3.9,1.8,3.9,3.9v9
	C78.2,653.3,76.5,655,74.3,655z"/>
<path class="st14" d="M70.1,639.9h-5.1c-0.4,0-0.7-0.3-0.7-0.7v-1.6c0-0.4,0.3-0.7,0.7-0.7h5.1c0.4,0,0.7,0.3,0.7,0.7v1.6
	C70.7,639.6,70.4,639.9,70.1,639.9z"/>
<circle class="st5" cx="67.1" cy="645.5" r="2.6"/>
<rect x="383.7" y="871" class="st14" width="174.3" height="29.8"/>
<path class="st18" d="M320.3,660.3H120.4c-7.7,0-14-6.3-14-14l0,0c0-7.7,6.3-14,14-14h199.9c7.7,0,14,6.3,14,14l0,0
	C334.4,654,328.1,660.3,320.3,660.3z"/>
<path class="st14" d="M305.5,648.9c1.6,0,2.9-1.3,2.9-2.9V641c0-1.6-1.3-2.9-2.9-2.9s-2.9,1.3-2.9,2.9v4.9
	C302.6,647.5,303.9,648.9,305.5,648.9z M310.2,644c-0.4,0-0.7,0.3-0.7,0.7v1.3c0,2.2-1.9,4.1-4.2,3.9c-2-0.1-3.7-2-3.7-4.1v-1.1
	c0-0.4-0.3-0.7-0.7-0.7c-0.4,0-0.7,0.3-0.7,0.7v1c0,2.7,2,5.2,4.7,5.6v1.1h-1.2c-0.6,0-1,0.5-1,1c0,0.3,0.2,0.4,0.5,0.4h4.9
	c0.3,0,0.5-0.2,0.5-0.4c0-0.6-0.4-1-1-1h-1.2v-1c2.6-0.4,4.7-2.6,4.7-5.3v-1.3C310.9,644.3,310.6,644,310.2,644z"/>
<path class="st19" d="M274.6,646.3c0-4.1,3.3-7.4,7.4-7.4c4.1,0,7.4,3.3,7.4,7.4s-3.3,7.4-7.4,7.4
	C277.9,653.7,274.6,650.4,274.6,646.3z M279.3,648.3c-0.2-0.2-0.5-0.2-0.7,0c-0.2,0.2-0.2,0.5,0,0.7c0.6,0.7,1.8,1.5,3.3,1.5
	c1.6,0,2.7-0.8,3.4-1.5c0.2-0.2,0.1-0.5,0-0.7c-0.2-0.2-0.5-0.1-0.7,0c-0.5,0.6-1.4,1.2-2.7,1.2
	C280.7,649.5,279.8,648.9,279.3,648.3L279.3,648.3z M279.7,644c-0.5,0-0.9,0.4-0.9,0.9s0.4,0.9,0.9,0.9c0.5,0,0.9-0.4,0.9-0.9
	S280.2,644,279.7,644z M284.3,645.8c0.5,0,0.9-0.4,0.9-0.9s-0.4-0.9-0.9-0.9c-0.5,0-0.9,0.4-0.9,0.9S283.8,645.8,284.3,645.8z"/>
<text transform="matrix(1 0 0 1 117.1196 650.4802)" class="st20 st21 st22">Chat message</text>
<text transform="matrix(1 0 0 1 28.5996 32.5283)" class="st10 st21 st23">12:45</text>
<path class="st24" d="M251.4-884.8c-2.4-2.2-10.3,0-13.8,0c-7.6,0-13.8,6.2-13.8,13.8s6.2,13.8,13.8,13.8c7.6,0,13.8-6.2,13.8-13.8
	C251.4-875.1,254.2-882.3,251.4-884.8z M249.9-871.1c0,6.8-5.5,12.2-12.2,12.2c-6.8,0-12.2-5.5-12.2-12.2s5.5-12.2,12.2-12.2
	c3.1,0,10-1.9,12.2,0C252.4-881.1,249.9-874.7,249.9-871.1z"/>
<path class="st24" d="M241.1-866.3h-8.8c-0.8,0-1.4-0.6-1.4-1.4v-6.6c0-0.8,0.6-1.4,1.4-1.4h8.8c0.8,0,1.4,0.6,1.4,1.4v6.6
	C242.4-866.9,241.8-866.3,241.1-866.3z"/>
<rect x="245" y="-874.9" class="st24" width="1.4" height="7.9"/>
<rect x="241.9" y="-873.9" class="st24" width="3.8" height="5.9"/>
<path class="st25" d="M302.6-862.6c-9.8,9.5-11,27.4-2,43c10.1,17.6,29.4,25.4,43.2,17.6"/>
<polyline class="st25" points="302.5,-862.4 303.6,-862.2 314.7,-858.8 314.7,-852.8 294.5,-842.4 "/>
<polyline class="st25" points="343.1,-801.5 343.3,-802.6 343.7,-814.2 338,-816.2 321.6,-800.6 "/>
<circle class="st24" cx="388.7" cy="-858.6" r="3.8"/>
<circle class="st24" cx="388.7" cy="-844.7" r="3.8"/>
<circle class="st24" cx="388.7" cy="-830.8" r="3.8"/>
<circle class="st26" cx="235.1" cy="-799" r="23.4"/>
<rect x="245.9" y="-765.8" transform="matrix(0.7708 0.6371 -0.6371 0.7708 -423.6553 -349.7215)" class="st24" width="56.5" height="4.3"/>
</svg>
